<svg xmlns="http://www.w3.org/2000/svg" viewBox="0 0 365.5 538.07"><defs><style>.cls-1{fill:#fff;}</style></defs><g id="Layer_2" data-name="Layer 2"><g id="Layer_1-2" data-name="Layer 1"><path class="cls-1" d="M3.81,303.64c3.78,17.45,9.45,34.35,15.12,51.24q3,9,6.1,18.08a8.13,8.13,0,0,0,.21,1c5.18,15.13,7.67,30.81,9.55,46.63,1.24,10.48,2,21,2.43,31.54a364.2,364.2,0,0,1-.37,42.44c-.34,4.77-.79,9.54-1.23,14.76l.72-1.64a315.67,315.67,0,0,1,17.19-34.06,193.09,193.09,0,0,1,14-20.94c6.08-7.7,12.59-15,21.11-20.1,6.79-4.09,14-6.13,21.87-3.54,6.44,2.13,11.33,6.45,15.52,11.63,6.47,8,11,17,14.85,26.46a290.11,290.11,0,0,1,11.35,34.51c3,11.77,5.39,23.68,7.75,35.6.07.33,0,.85.56.84.36-.13.3-.43.31-.67.78-12.87,1.77-25.73,3.62-38.5,2.3-15.87,5.48-31.54,10.83-46.69,3.91-11.08,8.79-21.68,16.43-30.77s16.93-14.89,29-15.39c8.35-.34,16.13,2,23.62,5.43,11.55,5.25,21.56,12.81,31,21.12,16.41,14.38,30.59,30.82,44.1,47.88,4.45,5.62,8.76,11.36,13.23,17.18a4.88,4.88,0,0,0-.05-.71q-6-25.12-12-50.24-4.31-17.88-8.05-35.87c-2.95-14.16-4.1-28.43-1.86-42.79,3.35-21.54,12.44-40.67,25.09-58.21,11.49-15.94,21.89-32.38,26.8-51.77a86.23,86.23,0,0,0,2.86-21.43c0-13.82-3.7-26.79-9.78-39.14-5.76-11.68-13.54-22-21.78-32-8.85-10.76-17.76-21.49-25.94-32.8-7-9.7-14-19.43-20.37-29.52a234.18,234.18,0,0,1-14-24.63A126,126,0,0,1,266.12,59C260.19,38,264,18.45,276.09,0c-1.64.5-2.89.86-4.14,1.25C258.16,5.54,244.5,10.16,232,17.67a119.9,119.9,0,0,0-16.9,11.82,85.89,85.89,0,0,0-22.67,26.68C183,73.42,180.58,92,182.94,111.32s8.64,37.53,17.74,54.75c13.25,25,31.7,46,51.73,65.66,12.33,12.11,24.78,24.11,35.89,37.4,6,7.15,11.56,14.57,14.89,23.43,3.4,9.07.89,17.05-7.14,22.46a43,43,0,0,1-12.93,5.58c-9.87,2.68-20,3.28-30.17,3.92a236.73,236.73,0,0,1-33.58-.33,348.8,348.8,0,0,1-37.85-5.32,119.25,119.25,0,0,1-22.66-6.65,148.63,148.63,0,0,1-25.54-12.94c-14-9.17-25.78-20.46-33.61-35.51a120.08,120.08,0,0,1-8.24-21.31c.41-.72,1.19-.79,1.86-1,6.3-2.31,12.88-3.13,19.53-3.47,11.2-.58,22.45-.28,33.62-1.55,10.58-1.21,21-3.1,30.91-7.18,5.65-2.32,10.84-5.34,14.79-10.15.88-1.08,1.11-1.61-.48-2.38-7.69-3.73-15.29-7.66-23-11.42-4-1.94-7.93-3.92-11.93-5.81-3-1.42-5.94-3.1-9-4.53-.55-.37-1.09-.76-1.65-1.1-8.43-5.17-16.71-10.55-24.23-17-8.22-7.07-13.79-15.71-15.54-26.61-1.62-10.11-.32-19.93,2.71-29.6a9.5,9.5,0,0,0,.9-3.47,123.58,123.58,0,0,0-19.4,8.56c-34.05,18.22-58.89,45.23-75.36,80C3.91,229.6-1.55,254.81.38,281.41A160.24,160.24,0,0,0,3.81,303.64Z"/><path class="cls-1" d="M111.33,113c4.16-3,8.49-5.77,12.73-8.87l-22,2,3.83,5.84C108.13,115.34,108.14,115.36,111.33,113Z"/></g></g></svg>